HIERARCHY
ROOT Bip001_Pelvis
{
  OFFSET -22.4848 91.2454 47.947
  CHANNELS 6 Xposition Yposition Zposition Zrotation Xrotation Yrotation
  JOINT Bip001_Spine
  {
    OFFSET 1.44608e-005 10.4157 -0.0118244
    CHANNELS 3 Zrotation Xrotation Yrotation
    JOINT Bip001_L_Thigh
    {
      OFFSET 11.2582 -10.4157 0.0118432
      CHANNELS 3 Zrotation Xrotation Yrotation
      JOINT Bip001_L_Calf
      {
        OFFSET -0.720717 -44.8687 0.366937
        CHANNELS 3 Zrotation Xrotation Yrotation
        JOINT Bip001_L_Foot
        {
          OFFSET -0.664439 -41.3745 -3.62995
          CHANNELS 3 Zrotation Xrotation Yrotation
          JOINT Bip001_L_Toe0
          {
            OFFSET 0.0541048 -10.4146 13.4033
            CHANNELS 3 Zrotation Xrotation Yrotation
            End Site
            {
              OFFSET -1.04503e-005 0 7.70137
            }
          }
        }
      }
    }
    JOINT Bip001_R_Thigh
    {
      OFFSET -11.2582 -10.4156 0.0118122
      CHANNELS 3 Zrotation Xrotation Yrotation
      JOINT Bip001_R_Calf
      {
        OFFSET 0.72059 -44.8687 0.36676
        CHANNELS 3 Zrotation Xrotation Yrotation
        JOINT Bip001_R_Foot
        {
          OFFSET 0.664321 -41.3745 -3.62979
          CHANNELS 3 Zrotation Xrotation Yrotation
          JOINT Bip001_R_Toe0
          {
            OFFSET -0.05417 -10.4146 13.4033
            CHANNELS 3 Zrotation Xrotation Yrotation
            End Site
            {
              OFFSET -1.04873e-005 0 7.70137
            }
          }
        }
      }
    }
    JOINT Bip001_Spine1
    {
      OFFSET 1.90638e-005 14.8539 1.10727
      CHANNELS 3 Zrotation Xrotation Yrotation
      JOINT Bip001_Spine2
      {
        OFFSET 2.28934e-005 14.7848 -1.7233
        CHANNELS 3 Zrotation Xrotation Yrotation
        JOINT Bip001_Neck
        {
          OFFSET 2.24514e-005 15.6905 -0.498826
          CHANNELS 3 Zrotation Xrotation Yrotation
          JOINT Bip001_L_Clavicle
          {
            OFFSET 6.17691 -0.000591152 0.00852867
            CHANNELS 3 Zrotation Xrotation Yrotation
            JOINT Bip001_L_UpperArm
            {
              OFFSET 11.773 -0.0611878 0.00197697
              CHANNELS 3 Zrotation Xrotation Yrotation
              JOINT Bip001_L_Forearm
              {
                OFFSET 26.4515 0.0817566 -2.1958
                CHANNELS 3 Zrotation Xrotation Yrotation
                JOINT Bip001_L_Hand
                {
                  OFFSET 32.8678 0.156744 1.67112
                  CHANNELS 3 Zrotation Xrotation Yrotation
                  JOINT Bip001_L_Finger0
                  {
                    OFFSET 6.16269 -2.25227 6.0167
                    CHANNELS 3 Zrotation Xrotation Yrotation
                    End Site
                    {
                      OFFSET 4.305 -1.46663 0.618144
                    }
                  }
                  JOINT Bip001_L_Finger1
                  {
                    OFFSET 11.2958 -0.718377 -0.201962
                    CHANNELS 3 Zrotation Xrotation Yrotation
                    End Site
                    {
                      OFFSET 6.31953 -0.405165 -0.0802297
                    }
                  }
                }
              }
            }
          }
          JOINT Bip001_R_Clavicle
          {
            OFFSET -6.17691 -0.000574027 0.00851165
            CHANNELS 3 Zrotation Xrotation Yrotation
            JOINT Bip001_R_UpperArm
            {
              OFFSET -11.773 -0.0611516 0.00194365
              CHANNELS 3 Zrotation Xrotation Yrotation
              JOINT Bip001_R_Forearm
              {
                OFFSET -26.4514 0.0822336 -2.19736
                CHANNELS 3 Zrotation Xrotation Yrotation
                JOINT Bip001_R_Hand
                {
                  OFFSET -32.8677 0.156816 1.67144
                  CHANNELS 3 Zrotation Xrotation Yrotation
                  JOINT Bip001_R_Finger0
                  {
                    OFFSET -6.16269 -2.25224 6.01673
                    CHANNELS 3 Zrotation Xrotation Yrotation
                    End Site
                    {
                      OFFSET -4.30499 -1.46661 0.618137
                    }
                  }
                  JOINT Bip001_R_Finger1
                  {
                    OFFSET -11.2957 -0.718342 -0.201995
                    CHANNELS 3 Zrotation Xrotation Yrotation
                    End Site
                    {
                      OFFSET -6.31951 -0.405145 -0.080248
                    }
                  }
                }
              }
            }
          }
          JOINT Bip001_Head
          {
            OFFSET 1.11782e-005 11.4912 2.09908
            CHANNELS 3 Zrotation Xrotation Yrotation
            End Site
            {
              OFFSET 2.95144e-005 21.2823 -2.83069e-005
            }
          }
        }
      }
    }
  }
}
MOTION
Frames:	7
Frame Time:	0.0333333
3.40295 93.3818 -1.4796 1.24065 -3.16978 3.22452 -0.0269108 1.07373 0.622926 -2.12103 2.44204 3.74057 -0.00858903 10.4318 -0.205861 -5.55925 6.06765 -15.388 9.57971e-007 1.31838e-007 -7.22843e-007 -3.37258 -12.7313 -1.28648 -0.0724992 28.6229 0.473764 2.17825 -8.91505 -0.0462888 7.37934e-010 -4.26907e-007 -2.12253e-007 -0.0460666 2.10499 1.25356 -0.0466244 2.10488 1.25672 0.914478 -7.12547 1.30579 -22.1395 5.70148 10.0174 -47.7636 36.5296 -21.9511 -0.531978 0.0443758 -5.45154 2.54078 31.7009 -7.19836 3.18055e-015 -3.18055e-015 -4.77083e-015 0 0 -3.18055e-015 9.59854 4.40369 -19.764 52.7242 52.2838 28.5237 0.111455 -0.00536908 1.41235 -10.2945 -8.46034 4.07977 4.77083e-015 3.18055e-015 3.18055e-015 -1.76556e-031 3.18056e-015 3.18055e-015 -11.459 12.959 5.32793 
3.39837 93.3767 -1.48255 1.24129 -3.16869 3.22463 -0.0269402 1.07373 0.622867 -2.12247 2.44219 3.78536 -0.00858893 10.4318 -0.205861 -5.55 6.10509 -15.453 9.57971e-007 1.31838e-007 -7.22843e-007 -3.38139 -12.7529 -1.3142 -0.0727417 28.6486 0.473881 2.17843 -8.90397 -0.0454266 7.37934e-010 -4.26907e-007 -2.12253e-007 -0.0466024 2.10477 1.25397 -0.0471924 2.10468 1.25673 0.918027 -7.14995 1.30564 -22.1456 5.72551 10.0224 -47.7652 36.5193 -21.9437 -0.532056 0.0443825 -5.4239 2.54058 31.7026 -7.1976 -6.36111e-015 -3.18055e-015 3.18055e-015 -6.36111e-015 -3.18056e-015 1.59028e-015 9.59913 4.42876 -19.7649 52.7019 52.3172 28.5549 0.111505 -0.00532131 1.36734 -10.2896 -8.48624 4.0969 -0 -9.54166e-015 -0 3.53113e-031 -6.36111e-015 3.18055e-015 -11.4713 12.9589 5.33124 
3.3891 93.3662 -1.48859 1.24399 -3.16087 3.22491 -0.0274095 1.07373 0.622762 -2.12389 2.43985 3.87844 -0.00859003 10.4315 -0.205861 -5.53904 6.18082 -15.5828 9.57971e-007 1.31838e-007 -7.22843e-007 -3.40661 -12.7981 -1.37283 -0.0732519 28.7027 0.474126 2.17889 -8.87961 -0.0394079 7.37934e-010 -4.26907e-007 -2.12253e-007 -0.048153 2.10481 1.25426 -0.048074 2.10475 1.25659 0.932156 -7.20152 1.30553 -22.1596 5.77518 10.0406 -47.7617 36.4794 -21.9171 -0.531502 0.0438755 -5.36642 2.54111 31.712 -7.19727 0 0 -0 -0 -6.36111e-015 -0 9.58789 4.48102 -19.7655 52.6496 52.3931 28.6398 0.111675 -0.00525234 1.28391 -10.2771 -8.53908 4.12695 1.59028e-015 3.18055e-015 3.18055e-015 1.59028e-015 6.36111e-015 -0 -11.5013 12.9582 5.34634 
3.38115 93.3575 -1.49397 1.2525 -3.15112 3.22535 -0.0283223 1.07373 0.622615 -2.11964 2.43259 3.96568 -0.00859234 10.4309 -0.205861 -5.53026 6.24617 -15.692 9.57971e-007 1.31838e-007 -7.22843e-007 -3.42819 -12.8367 -1.42082 -0.0736895 28.7491 0.474336 2.17894 -8.86181 -0.0269095 7.37934e-010 -4.26907e-007 -2.12253e-007 -0.0522659 2.10514 1.2544 -0.0526116 2.1051 1.2563 0.953928 -7.24922 1.3054 -22.1779 5.82012 10.0603 -47.7492 36.4509 -21.9037 -0.530247 0.0429557 -5.31571 2.54314 31.7328 -7.19806 -3.18055e-015 3.18055e-015 -1.59028e-015 -3.18055e-015 6.36111e-015 -3.18055e-015 9.56963 4.52972 -19.765 52.6031 52.4589 28.7045 0.11197 -0.00516251 1.23052 -10.2617 -8.58494 4.13815 1.59028e-015 -3.18055e-015 3.18055e-015 1.59028e-015 0 3.18055e-015 -11.528 12.9571 5.36465 
3.37369 93.3494 -1.49926 1.26306 -3.14203 3.22597 -0.0296819 1.07373 0.622428 -2.11191 2.42569 4.05606 -0.00859589 10.4299 -0.20586 -5.52283 6.307 -15.7936 9.57971e-007 1.31838e-007 -7.22843e-007 -3.44672 -12.8732 -1.46401 -0.0741018 28.7927 0.474534 2.17767 -8.84905 -0.0173291 7.37934e-010 -4.26907e-007 -2.12253e-007 -0.0596848 2.10577 1.2544 -0.0593726 2.10575 1.25587 0.980957 -7.29758 1.30524 -22.2 5.86517 10.0806 -47.7322 36.4253 -21.8953 -0.526851 0.0420457 -5.26674 2.54533 31.7666 -7.1987 -3.18055e-015 -6.36111e-015 -1.59028e-015 -0 -6.36111e-015 -0 9.54918 4.57905 -19.7634 52.5527 52.5273 28.7608 0.112386 -0.00505235 1.19842 -10.2356 -8.63131 4.13639 -3.53112e-031 3.18055e-015 6.36111e-015 -1.59028e-015 0 6.36111e-015 -11.5539 12.9558 5.38128 
3.36595 93.3409 -1.50476 1.27404 -3.13262 3.22674 -0.0314919 1.07373 0.622204 -2.10429 2.41762 4.14997 -0.00860068 10.4286 -0.205859 -5.51423 6.36744 -15.8911 9.57971e-007 1.31838e-007 -7.22843e-007 -3.46509 -12.9108 -1.50604 -0.074528 28.8378 0.47474 2.17658 -8.84588 -0.00481256 7.37934e-010 -4.26907e-007 -2.12253e-007 -0.0694179 2.10672 1.25424 -0.0691786 2.10672 1.25529 1.01137 -7.34887 1.30464 -22.2234 5.91255 10.1025 -47.7115 36.4026 -21.891 -0.521713 0.0411333 -5.21524 2.54234 31.7994 -7.19243 -6.36111e-015 1.27222e-014 1.59028e-015 -6.36111e-015 1.27222e-014 -1.59028e-015 9.52728 4.63094 -19.7597 52.5091 52.5837 28.8077 0.11292 -0.00492239 1.17485 -10.1991 -8.66366 4.12921 -3.18055e-015 -3.18055e-015 3.18055e-015 -6.36111e-015 -6.36111e-015 -0 -11.581 12.9542 5.39646 
3.35782 93.3318 -1.51052 1.28493 -3.12272 3.22767 -0.0344333 1.07373 0.621948 -2.09471 2.40584 4.24344 -0.0086072 10.4268 -0.205858 -5.50369 6.42601 -15.9794 9.57971e-007 1.31838e-007 -7.22843e-007 -3.4808 -12.9494 -1.54747 -0.0749774 28.8853 0.474957 2.17529 -8.84859 0.0142411 7.37934e-010 -4.26907e-007 -2.12253e-007 -0.0796495 2.10801 1.25393 -0.0795191 2.10802 1.25458 1.0452 -7.40431 1.30431 -22.2506 5.96337 10.1269 -47.6863 36.3855 -21.8919 -0.516306 0.0402058 -5.16093 2.53605 31.8252 -7.18197 -3.18055e-015 -6.36111e-015 1.59028e-015 -3.18055e-015 -6.36111e-015 1.59028e-015 9.50383 4.68691 -19.7496 52.4827 52.6174 28.8373 0.11357 -0.00477314 1.15809 -10.1471 -8.66904 4.12442 0 0 -0 0 0 -0 -11.6104 12.9518 5.40983 
